<svg width="400px" height="400px" viewBox="0 0 400 400" version="1.1" xmlns="http://www.w3.org/2000/svg" xmlns:xlink="http://www.w3.org/1999/xlink">
  <defs>
    <linearGradient x1="0%" y1="50%" x2="100%" y2="50%" id="shadeGradientLight">
      <stop stop-color="#E6E6E6" offset="0%"></stop>
      <stop stop-color="#CDCED1" offset="16.67%"></stop>
      <stop stop-color="#AFB1B3" offset="33.33%"></stop>
      <stop stop-color="#A5A5A5" offset="50%"></stop>
      <stop stop-color="#77818D" offset="66.67%"></stop>
      <stop stop-color="#505C6A" offset="83.33%"></stop>
      <stop stop-color="#3D4752" offset="100%"></stop>
    </linearGradient>
    <linearGradient x1="0%" y1="50%" x2="100%" y2="50%" id="shadeGradientDark">
      <stop stop-color="#505C6A" offset="0%"></stop>
      <stop stop-color="#77818D" offset="16.67%"></stop>
      <stop stop-color="#A5A5A5" offset="33.33%"></stop>
      <stop stop-color="#AFB1B3" offset="50%"></stop>
      <stop stop-color="#CDCED1" offset="66.67%"></stop>
      <stop stop-color="#E6E6E6" offset="83.33%"></stop>
      <stop stop-color="#FFFFFF" offset="100%"></stop>
    </linearGradient>
  </defs>
  <g id="light">
    <rect fill="#FFFFFF" x="0" y="0" width="400" height="200"></rect>
    <rect fill="#CB2735" x="28" y="28" width="74" height="37"></rect>
    <rect fill="#F28C00" x="118" y="28" width="74" height="37"></rect>
    <rect fill="#FEC31D" x="208" y="28" width="74" height="37"></rect>
    <rect fill="#79B63F" x="298" y="28" width="74" height="37"></rect>
    <rect fill="#05977D" x="28" y="81" width="74" height="37"></rect>
    <rect fill="#007DBC" x="118" y="81" width="74" height="37"></rect>
    <rect fill="#843F88" x="208" y="81" width="74" height="37"></rect>
    <rect fill="#E05C84" x="298" y="81" width="74" height="37"></rect>
    <rect fill="url(#shadeGradientLight)" x="28" y="134" width="344" height="37"></rect>
  </g>
  <g id="dark" transform="translate(0.000000, 200.000000)">
    <rect fill="#3D4752" x="0" y="0" width="400" height="200"></rect>
    <rect fill="#FF8E7D" x="28" y="28" width="74" height="37"></rect>
    <rect fill="#FFC36D" x="118" y="28" width="74" height="37"></rect>
    <rect fill="#FFDF67" x="208" y="28" width="74" height="37"></rect>
    <rect fill="#A3D971" x="298" y="28" width="74" height="37"></rect>
    <rect fill="#55BBA7" x="28" y="81" width="74" height="37"></rect>
    <rect fill="#80BBE7" x="118" y="81" width="74" height="37"></rect>
    <rect fill="#B490B6" x="208" y="81" width="74" height="37"></rect>
    <rect fill="#F6B4C8" x="298" y="81" width="74" height="37"></rect>
    <rect fill="url(#shadeGradientDark)" x="28" y="134" width="344" height="37"></rect>
  </g>
</svg>