<?xml version="1.0" encoding="utf-8"?>
<svg width="126" height="37" viewBox="0 0 126 37" fill="none" xmlns="http://www.w3.org/2000/svg">
  <path d="M125.451 15.6104L121.803 19.7384C120.747 18.4424 119.403 17.8184 117.819 17.8184C116.235 17.8184 115.179 18.1064 114.651 18.7304C113.595 19.8824 114.603 20.8424 117.819 21.4664C122.619 22.0424 125.739 23.8184 125.739 29.2424C125.739 33.9944 121.275 36.2504 117.003 36.2504C112.587 36.2504 109.803 34.9064 107.643 32.7464L111.291 28.6664C112.347 29.9144 113.979 30.6344 116.235 30.8744C118.347 31.1144 121.083 30.0104 119.931 28.2344C119.595 27.6584 118.395 27.2264 116.235 27.0344C112.011 26.5544 108.603 24.8744 108.603 19.8824C108.603 15.3224 112.779 12.4424 116.907 12.4424C120.939 12.4424 122.763 13.1144 125.451 15.6104Z" fill="#80bbe7"/>
  <path d="M80.4977 24.2984C80.4977 17.5304 85.6337 12.3464 92.4497 12.3464C99.2177 12.3464 104.402 17.5304 104.402 24.2984C104.402 31.0664 99.2177 36.2504 92.4497 36.2504C85.6337 36.2504 80.4977 31.0184 80.4977 24.2984ZM92.4017 30.5864C96.0017 30.5864 98.4017 27.8504 98.4017 24.2984C98.4017 20.7944 96.0017 18.0104 92.4017 18.0104C88.8017 18.0104 86.4017 20.8424 86.4017 24.2984C86.4017 27.8504 88.8017 30.5864 92.4017 30.5864Z" fill="#fff"/>
  <path d="M53.6642 0.87439H60.2402V14.4584C61.3442 13.3544 63.0722 12.7304 65.4242 12.5864C72.1922 12.2024 77.1362 18.0104 77.1362 24.2984C77.1362 30.8744 72.1922 36.0104 65.4242 36.0104C63.7442 36.0104 62.0162 35.3864 60.2402 34.1384V36.0104H53.6642V0.87439ZM65.5682 30.5864C69.1682 30.5864 71.5682 27.8504 71.5682 24.3464C71.5682 20.8424 69.1682 18.0584 65.5682 18.0584C61.9682 18.0584 59.5682 20.8424 59.5682 24.3464C59.5682 27.8504 61.9682 30.5864 65.5682 30.5864Z" fill="#fff"/>
  <path d="M41.5678 12.5864L47.9038 12.6344V36.0104H41.5678V34.1384C39.8398 35.3864 38.1118 36.0104 36.4318 36.0104C29.6638 36.0104 24.7198 30.8744 24.7198 24.2984C24.7198 18.0104 29.6638 12.2504 36.4318 12.5864C38.7358 12.7784 40.5118 13.4024 41.5678 14.5064V12.5864ZM36.4318 30.5864C39.9838 30.5864 42.4318 27.8504 42.4318 24.3464C42.4318 20.8424 39.9838 18.0584 36.3838 18.0584C32.7838 18.0584 30.4318 20.8424 30.4318 24.3464C30.4318 27.8504 32.7838 30.5864 36.4318 30.5864Z" fill="#fff"/>
  <path d="M 1.265 20.118 L 1.715 20.791 C 2.508 21.979 3.734 22.8 5.344 23.1 C 5.869 19.593 8.603 17.308 12.316 17.278 C 14.374 17.278 16.202 17.898 17.808 19.171 L 20.956 15.677 C 18.547 13.555 15.656 12.511 12.316 12.511 C 7.325 12.511 2.927 15.614 1.265 20.118 Z" fill="#fff" style=""/>
  <path d="M 7.591 30.013 L 6.686 30.032 C 4.779 30.073 2.96 29.665 1.325 28.909 C 3.025 33.365 7.356 36.531 12.316 36.408 C 15.656 36.408 18.547 35.33 20.956 33.207 L 17.808 29.715 C 16.266 30.987 14.436 31.639 12.348 31.639 C 10.417 31.639 8.793 31.055 7.591 30.013 Z" fill="#fff" style=""/>
  <path d="M 6.665 29.013 C 4.581 29.055 2.608 28.519 0.898 27.549 C 0.65 26.543 0.53 25.483 0.561 24.393 C 0.537 23.341 0.65 22.327 0.886 21.365 C 1.854 22.816 3.358 23.789 5.254 24.119 C 5.253 24.202 5.251 24.279 5.251 24.361 C 5.264 26.208 5.765 27.796 6.665 29.013 Z" fill="#80bbe7" style=""/>
</svg>