<?xml version="1.0" encoding="utf-8"?>
<svg width="126" height="37" viewBox="0 0 126 37" fill="none" xmlns="http://www.w3.org/2000/svg">
  <path d="M125.451 15.6104L121.803 19.7384C120.747 18.4424 119.403 17.8184 117.819 17.8184C116.235 17.8184 115.179 18.1064 114.651 18.7304C113.595 19.8824 114.603 20.8424 117.819 21.4664C122.619 22.0424 125.739 23.8184 125.739 29.2424C125.739 33.9944 121.275 36.2504 117.003 36.2504C112.587 36.2504 109.803 34.9064 107.643 32.7464L111.291 28.6664C112.347 29.9144 113.979 30.6344 116.235 30.8744C118.347 31.1144 121.083 30.0104 119.931 28.2344C119.595 27.6584 118.395 27.2264 116.235 27.0344C112.011 26.5544 108.603 24.8744 108.603 19.8824C108.603 15.3224 112.779 12.4424 116.907 12.4424C120.939 12.4424 122.763 13.1144 125.451 15.6104Z" fill="#80bbe7"/>
  <path d="M80.4977 24.2984C80.4977 17.5304 85.6337 12.3464 92.4497 12.3464C99.2177 12.3464 104.402 17.5304 104.402 24.2984C104.402 31.0664 99.2177 36.2504 92.4497 36.2504C85.6337 36.2504 80.4977 31.0184 80.4977 24.2984ZM92.4017 30.5864C96.0017 30.5864 98.4017 27.8504 98.4017 24.2984C98.4017 20.7944 96.0017 18.0104 92.4017 18.0104C88.8017 18.0104 86.4017 20.8424 86.4017 24.2984C86.4017 27.8504 88.8017 30.5864 92.4017 30.5864Z" fill="#505c6a"/>
  <path d="M53.6642 0.87439H60.2402V14.4584C61.3442 13.3544 63.0722 12.7304 65.4242 12.5864C72.1922 12.2024 77.1362 18.0104 77.1362 24.2984C77.1362 30.8744 72.1922 36.0104 65.4242 36.0104C63.7442 36.0104 62.0162 35.3864 60.2402 34.1384V36.0104H53.6642V0.87439ZM65.5682 30.5864C69.1682 30.5864 71.5682 27.8504 71.5682 24.3464C71.5682 20.8424 69.1682 18.0584 65.5682 18.0584C61.9682 18.0584 59.5682 20.8424 59.5682 24.3464C59.5682 27.8504 61.9682 30.5864 65.5682 30.5864Z" fill="#505c6a"/>
  <path d="M41.5678 12.5864L47.9038 12.6344V36.0104H41.5678V34.1384C39.8398 35.3864 38.1118 36.0104 36.4318 36.0104C29.6638 36.0104 24.7198 30.8744 24.7198 24.2984C24.7198 18.0104 29.6638 12.2504 36.4318 12.5864C38.7358 12.7784 40.5118 13.4024 41.5678 14.5064V12.5864ZM36.4318 30.5864C39.9838 30.5864 42.4318 27.8504 42.4318 24.3464C42.4318 20.8424 39.9838 18.0584 36.3838 18.0584C32.7838 18.0584 30.4318 20.8424 30.4318 24.3464C30.4318 27.8504 32.7838 30.5864 36.4318 30.5864Z" fill="#505c6a"/>
  <path d="M17.0833 28.7144L21.1633 32.8424C19.0513 34.9544 16.0753 36.2504 12.7153 36.2504C5.89931 36.2504 0.763306 31.0184 0.763306 24.2984C0.763306 17.5304 5.89931 12.3464 12.7153 12.3464C16.0753 12.3464 19.0513 13.6424 21.2113 15.8024L17.0833 19.9304C16.0273 18.7784 14.4913 18.0104 12.6673 18.0104C9.06731 18.0104 6.66731 20.8424 6.66731 24.2984C6.66731 27.8504 9.06731 30.5864 12.6673 30.5864C14.5393 30.5864 16.0273 29.8664 17.0833 28.7144Z" fill="#505c6a"/>
</svg>