<?xml version="1.0" encoding="utf-8"?>
<svg width="62" height="72" viewBox="0 0 62 72" fill="none" xmlns="http://www.w3.org/2000/svg">
  <path d="M2.88428 23.0979L4.22926 25.079C6.59754 28.5674 10.2635 30.9855 15.0735 31.8673C16.645 21.5526 24.8157 14.8301 35.9187 14.744C42.0627 14.744 47.5347 16.568 52.3347 20.312L61.7427 10.04C54.5427 3.80003 45.9027 0.728027 35.9187 0.728027C20.996 0.728027 7.85315 9.85719 2.88428 23.0979Z" fill="#505c6a"/>
  <path d="M21.7934 52.1972L19.0868 52.2526C13.3896 52.3691 7.95124 51.1737 3.06245 48.9522C8.14588 62.0553 21.087 71.3653 35.9187 71C45.9027 71 54.5427 67.832 61.7427 61.592L52.3347 51.32C47.7267 55.064 42.2547 56.984 36.0147 56.984C30.2377 56.984 25.39 55.2609 21.7934 52.1972Z" fill="#505c6a"/>
  <path d="M19.0868 52.2526L21.7934 52.1973L32.4446 70.9086C19.0929 69.8719 7.74464 61.0209 3.0625 48.9523C7.95129 51.1738 13.3896 52.3691 19.0868 52.2526Z" fill="#505c6a"/>
  <path d="M19.0254 49.2533C12.7943 49.3807 6.90083 47.8009 1.78857 44.9512C1.04353 41.9869 0.688516 38.8744 0.782703 35.672C0.707279 32.5797 1.04665 29.5964 1.7472 26.7642C4.64576 31.0336 9.13456 33.8952 14.8083 34.867C14.8019 35.1019 14.7987 35.3382 14.7987 35.576C14.8393 41.0132 16.3376 45.6786 19.0254 49.2533Z" fill="#80bbe7"/>
</svg>